<?xml version="1.0" encoding="UTF-8" standalone="no"?>
<!-- Created with Inkscape (http://www.inkscape.org/) -->

<svg
   width="1920"
   height="1080"
   viewBox="0 0 507.99999 285.75"
   version="1.1"
   id="svg1"
   inkscape:version="1.3.2 (091e20e, 2023-11-25, custom)"
   sodipodi:docname="girl.svg"
   xmlns:inkscape="http://www.inkscape.org/namespaces/inkscape"
   xmlns:sodipodi="http://sodipodi.sourceforge.net/DTD/sodipodi-0.dtd"
   xmlns="http://www.w3.org/2000/svg"
   xmlns:svg="http://www.w3.org/2000/svg">
  <sodipodi:namedview
     id="namedview1"
     pagecolor="#ffffff"
     bordercolor="#000000"
     borderopacity="0.25"
     inkscape:showpageshadow="2"
     inkscape:pageopacity="0.0"
     inkscape:pagecheckerboard="0"
     inkscape:deskcolor="#d1d1d1"
     inkscape:document-units="px"
     inkscape:zoom="10.26027"
     inkscape:cx="672.35073"
     inkscape:cy="934.72199"
     inkscape:window-width="1366"
     inkscape:window-height="705"
     inkscape:window-x="-8"
     inkscape:window-y="-8"
     inkscape:window-maximized="1"
     inkscape:current-layer="g24" />
  <defs
     id="defs1" />
  <g
     inkscape:label="Capa 1"
     inkscape:groupmode="layer"
     id="layer1"
     sodipodi:insensitive="true"
     style="display:none;opacity:0.624">
    <path
       style="fill:#aa4400;stroke:#552200;stroke-width:2.64583"
       d="m 187.88605,216.4774 c -0.778,0.9725 -1.7161,1.83618 -2.33399,2.91749 -1.16428,2.03749 1.51446,6.06661 2.91749,7.00196 0.48071,0.32048 3.61248,0 4.08447,0 0.67392,0 3.0305,0.1882 3.50099,0 1.76516,-0.70606 1.6261,-6.54286 0.5835,-7.58546 -0.4126,-0.41259 -1.19694,0.18452 -1.7505,0 -0.26094,-0.087 -0.33747,-0.46048 -0.58349,-0.5835 -0.4668,-0.23339 -1.2837,0.2334 -1.7505,0 -0.17396,-0.087 0.13754,-0.44596 0,-0.58349 -0.41259,-0.4126 -1.18944,0.1603 -1.75049,0 -1.0071,-0.28775 -1.94499,-0.778 -2.91748,-1.167 z"
       id="path1" />
    <path
       style="fill:#aa4400;stroke:#552200;stroke-width:2.64583"
       d="m 192.55402,226.39685 c -0.69144,0.53518 1.7532,18.08571 0.5835,19.25541 -1.28509,1.28508 -2.86822,1.34507 -4.08448,1.75049 -0.46338,0.15446 -1.14137,1.73768 -1.16699,1.75049 -0.34793,0.17396 -0.81907,-0.17397 -1.167,0 -0.17396,0.087 0.19044,0.54396 0,0.5835 -0.9173,0.19043 -1.87372,0 -2.81059,0"
       id="path2" />
    <path
       style="fill:#aa4400;stroke:#552200;stroke-width:2.64583"
       d="m 193.13752,245.65226 c 3.78945,2.21612 19.33069,14.17583 0,0"
       id="path3" />
    <path
       style="fill:#aa4400;stroke:#552200;stroke-width:2.64583"
       d="m 192.55402,226.39685 c -5.20903,13.32453 -5.94074,7.83797 0.5835,19.25541"
       id="path4" />
    <path
       style="fill:#aa4400;stroke:#552200;stroke-width:2.64583"
       d="m 192.55402,226.39685 c 1.36149,2.72299 2.57404,5.52569 4.08449,8.16896 0.0965,0.16887 0.4029,-0.0722 0.58349,0 0.80762,0.32305 1.55599,0.778 2.33399,1.167 0.55013,0.27506 1.31558,0.14858 1.75049,0.58349 0.38557,0.38557 0.35902,1.25259 0.5835,1.167 0.77244,-0.29453 1.37759,-0.91427 2.06638,-1.37141"
       id="path5" />
  </g>
  <g
     id="g23"
     transform="rotate(-110.08609,192.38898,228.26797)"
     inkscape:transform-center-x="-5.2030397"
     inkscape:transform-center-y="2.8490279">
    <rect
       style="fill:#ffb380;stroke:#000000;stroke-width:0.46946;stroke-linecap:round;stroke-linejoin:round;stroke-dasharray:none"
       id="rect23"
       width="2.3321455"
       height="8.9384098"
       x="263.57013"
       y="-163.13953"
       transform="matrix(0.11620954,0.99322472,-0.9799807,0.19909253,0,0)"
       ry="1.6938406"
       rx="1.1660727"
       inkscape:transform-center-x="3.5427715"
       inkscape:transform-center-y="0.69762894" />
    <path
       id="path23"
       style="fill:#ffb380;stroke:#000000;stroke-width:0.46946;stroke-linecap:round;stroke-linejoin:round"
       inkscape:transform-center-x="-0.17012784"
       inkscape:transform-center-y="3.6068024"
       transform="matrix(0.99952507,0.03081627,0.05311297,0.99858851,0,0)"
       d="m 172.18257,227.73626 0.0727,6.42321 c 0.007,0.62012 -0.3622,1.12049 -0.8121,1.12049 h -0.70794 c -0.44991,0 -0.80941,-0.49997 -0.8121,-1.12049 l -0.0301,-6.95102"
       sodipodi:nodetypes="cssssc" />
  </g>
  <g
     id="g25"
     transform="matrix(-0.99127294,-0.13182537,-0.13182537,0.99127294,409.74706,40.66846)"
     inkscape:transform-center-x="-3.6027962"
     inkscape:transform-center-y="4.6446741">
    <rect
       style="fill:#ffb380;stroke:#000000;stroke-width:0.46946;stroke-linecap:round;stroke-linejoin:round;stroke-dasharray:none"
       id="rect25"
       width="2.3321455"
       height="8.9384098"
       x="263.57013"
       y="-163.13953"
       transform="matrix(0.11620954,0.99322472,-0.9799807,0.19909253,0,0)"
       ry="1.6938406"
       rx="1.1660727"
       inkscape:transform-center-x="3.5427715"
       inkscape:transform-center-y="0.69762894" />
    <path
       id="path25"
       style="fill:#ffb380;stroke:#000000;stroke-width:0.468632;stroke-linecap:round;stroke-linejoin:round"
       inkscape:transform-center-x="3.7114585"
       inkscape:transform-center-y="0.72106141"
       d="m 184.18475,232.67661 -3.05668,5.65667 c -0.29507,0.54614 -0.84459,0.77799 -1.21827,0.52745 l -0.58824,-0.39391 c -0.3741,-0.24992 -0.42709,-0.88651 -0.13077,-1.43195 l 3.04467,-5.60419"
       sodipodi:nodetypes="cssssc" />
  </g>
  <g
     id="g24"
     transform="matrix(0.65519381,-0.7554608,-0.7554608,-0.65519381,238.39094,538.03725)"
     inkscape:transform-center-x="5.784825"
     inkscape:transform-center-y="1.2706445">
    <rect
       style="fill:#ffb380;stroke:#000000;stroke-width:0.46946;stroke-linecap:round;stroke-linejoin:round;stroke-dasharray:none"
       id="rect24"
       width="2.3321455"
       height="8.9384098"
       x="263.57013"
       y="-163.13953"
       transform="matrix(0.11620954,0.99322472,-0.9799807,0.19909253,0,0)"
       ry="1.6938406"
       rx="1.1660727"
       inkscape:transform-center-x="3.5427715"
       inkscape:transform-center-y="0.69762894" />
    <path
       id="path24"
       style="fill:#ffb380;stroke:#000000;stroke-width:0.468632;stroke-linecap:round;stroke-linejoin:round"
       inkscape:transform-center-x="3.7114585"
       inkscape:transform-center-y="0.72106141"
       d="m 184.18475,232.67661 -3.05668,5.65667 c -0.29507,0.54614 -0.84459,0.77799 -1.21827,0.52745 l -0.58824,-0.39391 c -0.3741,-0.24992 -0.42709,-0.88651 -0.13077,-1.43195 l 3.04467,-5.60419"
       sodipodi:nodetypes="cssssc" />
    <path
       style="fill:#501616;stroke:#000000;stroke-width:0.529167;stroke-linecap:round;stroke-linejoin:round;stroke-dasharray:none"
       d="m 177.77237,240.09679 c 0,0 3.4955,-1.55286 2.3519,-4.83305 l -3.78786,3.56495 z"
       id="path6"
       inkscape:export-filename="shoe.png"
       inkscape:export-xdpi="96"
       inkscape:export-ydpi="96" />
    <path
       style="fill:#501616;stroke:#000000;stroke-width:0.529167;stroke-linecap:round;stroke-linejoin:round;stroke-dasharray:none"
       d="m 189.59185,216.98737 c 0,0 3.76835,-0.65526 3.45762,-4.11516 l -4.54171,2.53567 z"
       id="path16" />
  </g>
  <g
     inkscape:groupmode="layer"
     id="layer3"
     inkscape:label="Cuerpo">
    <g
       id="g20"
       transform="translate(0.5157434,0.30944606)"
       inkscape:export-filename="png\body.png"
       inkscape:export-xdpi="96"
       inkscape:export-ydpi="96">
      <path
         id="rect19"
         style="fill:#ff5555;stroke:#000000;stroke-width:0.529167;stroke-linecap:round;stroke-linejoin:round"
         d="m 189.5357,227.75228 4.95114,-0.61889 c 0,0 4.19798,11.49654 0.0516,17.56106 -5.74521,1.99015 -11.60423,-0.23209 -11.60423,-0.23209 4.34077,-6.49038 6.60149,-16.71008 6.60149,-16.71008 z"
         sodipodi:nodetypes="ccccc" />
      <path
         style="fill:#ffb380;stroke:#000000;stroke-width:0.529167;stroke-linecap:round;stroke-linejoin:round;stroke-dasharray:none"
         d="m 189.65029,227.74942 c 0,0 3.48131,2.68473 4.84593,-0.59207"
         id="path20"
         sodipodi:nodetypes="cc" />
    </g>
  </g>
  <g
     inkscape:groupmode="layer"
     id="layer4"
     inkscape:label="Brazo">
    <g
       id="g22"
       transform="rotate(4.6983793,196.67918,233.67842)"
       inkscape:transform-center-x="3.4653024"
       inkscape:transform-center-y="4.1082363">
      <rect
         style="fill:#ffb380;stroke:#000000;stroke-width:0.46946;stroke-linecap:round;stroke-linejoin:round;stroke-dasharray:none"
         id="rect20"
         width="2.3321455"
         height="8.9384098"
         x="263.57013"
         y="-163.13953"
         transform="matrix(0.11620954,0.99322472,-0.9799807,0.19909253,0,0)"
         ry="1.6938406"
         rx="1.1660727"
         inkscape:transform-center-x="3.5427715"
         inkscape:transform-center-y="0.69762894"
         inkscape:export-filename="arm.png"
         inkscape:export-xdpi="96"
         inkscape:export-ydpi="96" />
      <path
         id="rect22"
         style="fill:#ffb380;stroke:#000000;stroke-width:0.46946;stroke-linecap:round;stroke-linejoin:round"
         inkscape:transform-center-x="-0.17012784"
         inkscape:transform-center-y="3.6068024"
         transform="matrix(0.99952507,0.03081627,0.05311297,0.99858851,0,0)"
         d="m 172.18257,227.73626 0.0727,6.42321 c 0.007,0.62012 -0.3622,1.12049 -0.8121,1.12049 h -0.70794 c -0.44991,0 -0.80941,-0.49997 -0.8121,-1.12049 l -0.0301,-6.95102"
         sodipodi:nodetypes="cssssc" />
    </g>
  </g>
  <g
     inkscape:groupmode="layer"
     id="layer2"
     inkscape:label="Cabeza"
     transform="translate(0.05157434,0.41259474)"
     inkscape:export-filename="png\head.png"
     inkscape:export-xdpi="96"
     inkscape:export-ydpi="96">
    <path
       id="Rostro"
       style="display:inline;fill:#ffb380;stroke:#000000;stroke-width:0.529167;stroke-dasharray:none"
       d="m 198.53486,221.7471 a 6.7831535,5.7073302 0 0 1 -6.78315,5.70733 6.7831535,5.7073302 0 0 1 -6.78315,-5.70733 6.7831535,5.7073302 0 0 1 6.78315,-5.70733 6.7831535,5.7073302 0 0 1 6.78315,5.70733 z" />
    <g
       id="Cabello">
      <g
         id="coleta">
        <path
           style="fill:#00d4aa;stroke:#000000;stroke-width:0.529167;stroke-linecap:round;stroke-dasharray:none"
           d="m 188.46334,216.86944 c 0,0 0.91386,-0.78275 0.26879,-0.91694 -0.64508,-0.13418 -3.02826,0.51438 -2.6878,1.0064 0.34046,0.49202 1.00344,0.46965 1.00344,0.46965 z"
           id="path14" />
        <path
           style="fill:#ff6600;stroke:#000000;stroke-width:0.529167;stroke-linecap:round;stroke-linejoin:round;stroke-dasharray:none"
           d="m 188.40761,215.92305 c 0,0 -1.28515,-5.00836 -5.44191,-3.18756 -4.66528,2.04355 -2.50824,8.65784 -2.50824,8.65784 0.84507,-3.9578 4.39681,-5.72096 5.90794,-4.88679 z"
           id="path15"
           sodipodi:nodetypes="csccc" />
      </g>
      <path
         style="fill:#ff6600;stroke:#000000;stroke-width:0.529167;stroke-linecap:butt;stroke-dasharray:none"
         d="m 193.48113,218.93307 c 0,0 1.19595,1.29814 4.68524,0.95852 3.4893,-0.33963 0.003,0.008 0.003,0.008 0,0 -2.09162,-5.32298 -8.72801,-3.51867 -6.63638,1.8043 -4.43808,5.9451 -4.43808,5.9451 0,0 5.61521,0.42353 8.47758,-3.39297 z"
         id="path7" />
    </g>
    <g
       id="expresion">
      <g
         id="g17">
        <path
           style="fill:none;stroke:#000000;stroke-width:0.3;stroke-linecap:round;stroke-dasharray:none"
           d="m 194.46405,223.12279 c 0,0 0.43763,-0.80231 1.20347,-0.34645"
           id="path8" />
        <g
           id="g16">
          <path
             style="fill:none;stroke:#000000;stroke-width:0.396875;stroke-linecap:round;stroke-dasharray:none"
             d="m 193.17399,221.99131 c 0,0 -1.38676,-0.96206 -2.53457,0.90708"
             id="path9" />
          <path
             style="fill:none;stroke:#000000;stroke-width:0.396875;stroke-linecap:round;stroke-dasharray:none"
             d="m 197.34902,221.00635 c 0,0 -0.89589,-0.6382 -1.63741,0.60173"
             id="path10" />
        </g>
      </g>
      <path
         style="fill:none;stroke:#000000;stroke-width:0.368335;stroke-linecap:round;stroke-dasharray:none"
         d="m 192.03592,224.27073 c 0,0 0.90872,1.42228 2.68835,0.14006"
         id="path11" />
    </g>
    <g
       id="oreja">
      <path
         style="fill:#ffb380;stroke:#000000;stroke-width:0.396875;stroke-linecap:round;stroke-dasharray:none"
         d="m 186.21969,223.96699 c 0,0 -1.70086,1.48296 -2.49174,-0.24145 -0.64704,-1.41077 1.37796,-1.73675 2.06638,-0.95647"
         id="path12"
         sodipodi:nodetypes="csc" />
      <path
         style="fill:#ffb380;stroke:#000000;stroke-width:0.264583;stroke-linecap:round;stroke-dasharray:none"
         d="m 184.38981,223.09683 c 0,0 0.86522,-0.11517 0.58156,0.76159"
         id="path13" />
    </g>
  </g>
</svg>
